# v3 - VW Crafter L3H3 - L-galley, dinette that works as the office, rear bathroom
v 0.0000 0.0000 0.4500
v 0.6000 0.0000 0.4500
v 0.6000 0.0000 1.8320
v 0.0000 0.0000 1.8320
v 0.0000 0.9000 0.4500
v 0.6000 0.9000 0.4500
v 0.6000 0.9000 1.8320
v 0.0000 0.9000 1.8320
f 1 2 3 4
f 5 6 7 8
f 1 2 6 5
f 2 3 7 6
f 3 4 8 7
f 4 1 5 8
v 0.6000 0.0000 1.2320
v 1.1300 0.0000 1.2320
v 1.1300 0.0000 1.8320
v 0.6000 0.0000 1.8320
v 0.6000 0.9000 1.2320
v 1.1300 0.9000 1.2320
v 1.1300 0.9000 1.8320
v 0.6000 0.9000 1.8320
f 9 10 11 12
f 13 14 15 16
f 9 10 14 13
f 10 11 15 14
f 11 12 16 15
f 12 9 13 16
v 0.0000 0.0000 0.0000
v 0.6000 0.0000 0.0000
v 0.6000 0.0000 0.4500
v 0.0000 0.0000 0.4500
v 0.0000 0.4500 0.0000
v 0.6000 0.4500 0.0000
v 0.6000 0.4500 0.4500
v 0.0000 0.4500 0.4500
f 17 18 19 20
f 21 22 23 24
f 17 18 22 21
f 18 19 23 22
f 19 20 24 23
f 20 17 21 24
v 1.1300 0.0000 1.2320
v 1.3300 0.0000 1.2320
v 1.3300 0.0000 1.8320
v 1.1300 0.0000 1.8320
v 1.1300 1.8810 1.2320
v 1.3300 1.8810 1.2320
v 1.3300 1.8810 1.8320
v 1.1300 1.8810 1.8320
f 25 26 27 28
f 29 30 31 32
f 25 26 30 29
f 26 27 31 30
f 27 28 32 31
f 28 25 29 32
v 1.3300 0.0000 1.2320
v 2.8500 0.0000 1.2320
v 2.8500 0.0000 1.8320
v 1.3300 0.0000 1.8320
v 1.3300 0.4500 1.2320
v 2.8500 0.4500 1.2320
v 2.8500 0.4500 1.8320
v 1.3300 0.4500 1.8320
f 33 34 35 36
f 37 38 39 40
f 33 34 38 37
f 34 35 39 38
f 35 36 40 39
f 36 33 37 40
v 1.3300 0.0000 0.0000
v 2.8500 0.0000 0.0000
v 2.8500 0.0000 0.6000
v 1.3300 0.0000 0.6000
v 1.3300 0.4500 0.0000
v 2.8500 0.4500 0.0000
v 2.8500 0.4500 0.6000
v 1.3300 0.4500 0.6000
f 41 42 43 44
f 45 46 47 48
f 41 42 46 45
f 42 43 47 46
f 43 44 48 47
f 44 41 45 48
v 2.8500 0.0000 0.6000
v 3.4500 0.0000 0.6000
v 3.4500 0.0000 1.8320
v 2.8500 0.0000 1.8320
v 2.8500 1.8810 0.6000
v 3.4500 1.8810 0.6000
v 3.4500 1.8810 1.8320
v 2.8500 1.8810 1.8320
f 49 50 51 52
f 53 54 55 56
f 49 50 54 53
f 50 51 55 54
f 51 52 56 55
f 52 49 53 56
v 2.8500 0.0000 0.0000
v 3.4500 0.0000 0.0000
v 3.4500 0.0000 0.6000
v 2.8500 0.0000 0.6000
v 2.8500 1.8810 0.0000
v 3.4500 1.8810 0.0000
v 3.4500 1.8810 0.6000
v 2.8500 1.8810 0.6000
f 57 58 59 60
f 61 62 63 64
f 57 58 62 61
f 58 59 63 62
f 59 60 64 63
f 60 57 61 64
v 1.3300 0.4500 0.0000
v 2.8500 0.4500 0.0000
v 2.8500 0.4500 0.6000
v 1.3300 0.4500 0.6000
v 1.3300 0.5200 0.0000
v 2.8500 0.5200 0.0000
v 2.8500 0.5200 0.6000
v 1.3300 0.5200 0.6000
f 65 66 67 68
f 69 70 71 72
f 65 66 70 69
f 66 67 71 70
f 67 68 72 71
f 68 65 69 72
v 1.3300 0.4500 1.2320
v 2.8500 0.4500 1.2320
v 2.8500 0.4500 1.8320
v 1.3300 0.4500 1.8320
v 1.3300 0.5200 1.2320
v 2.8500 0.5200 1.2320
v 2.8500 0.5200 1.8320
v 1.3300 0.5200 1.8320
f 73 74 75 76
f 77 78 79 80
f 73 74 78 77
f 74 75 79 78
f 75 76 80 79
f 76 73 77 80
v 1.3300 0.4500 0.6000
v 2.8500 0.4500 0.6000
v 2.8500 0.4500 1.2320
v 1.3300 0.4500 1.2320
v 1.3300 0.5200 0.6000
v 2.8500 0.5200 0.6000
v 2.8500 0.5200 1.2320
v 1.3300 0.5200 1.2320
f 81 82 83 84
f 85 86 87 88
f 81 82 86 85
f 82 83 87 86
f 83 84 88 87
f 84 81 85 88
v 1.6400 0.7250 0.6360
v 2.5400 0.7250 0.6360
v 2.5400 0.7250 1.1960
v 1.6400 0.7250 1.1960
v 1.6400 0.7450 0.6360
v 2.5400 0.7450 0.6360
v 2.5400 0.7450 1.1960
v 1.6400 0.7450 1.1960
f 89 90 91 92
f 93 94 95 96
f 89 90 94 93
f 90 91 95 94
f 91 92 96 95
f 92 89 93 96
v 1.9600 0.0000 0.7860
v 2.2200 0.0000 0.7860
v 2.2200 0.0000 1.0460
v 1.9600 0.0000 1.0460
v 1.9600 0.7250 0.7860
v 2.2200 0.7250 0.7860
v 2.2200 0.7250 1.0460
v 1.9600 0.7250 1.0460
f 97 98 99 100
f 101 102 103 104
f 97 98 102 101
f 98 99 103 102
f 99 100 104 103
f 100 97 101 104
v 0.0000 0.8800 0.0000
v 0.6000 0.8800 0.0000
v 0.6000 0.8800 0.4500
v 0.0000 0.8800 0.4500
v 0.0000 0.9000 0.0000
v 0.6000 0.9000 0.0000
v 0.6000 0.9000 0.4500
v 0.0000 0.9000 0.4500
f 105 106 107 108
f 109 110 111 112
f 105 106 110 109
f 106 107 111 110
f 107 108 112 111
f 108 105 109 112
v 0.0000 0.4500 0.4300
v 0.6000 0.4500 0.4300
v 0.6000 0.4500 0.4500
v 0.0000 0.4500 0.4500
v 0.0000 0.8750 0.4300
v 0.6000 0.8750 0.4300
v 0.6000 0.8750 0.4500
v 0.0000 0.8750 0.4500
f 113 114 115 116
f 117 118 119 120
f 113 114 118 117
f 114 115 119 118
f 115 116 120 119
f 116 113 117 120
v 0.0000 1.4000 1.5320
v 1.1300 1.4000 1.5320
v 1.1300 1.4000 1.8320
v 0.0000 1.4000 1.8320
v 0.0000 1.8000 1.5320
v 1.1300 1.8000 1.5320
v 1.1300 1.8000 1.8320
v 0.0000 1.8000 1.8320
f 121 122 123 124
f 125 126 127 128
f 121 122 126 125
f 122 123 127 126
f 123 124 128 127
f 124 121 125 128
v 1.3300 1.4000 1.5320
v 2.8500 1.4000 1.5320
v 2.8500 1.4000 1.8320
v 1.3300 1.4000 1.8320
v 1.3300 1.8000 1.5320
v 2.8500 1.8000 1.5320
v 2.8500 1.8000 1.8320
v 1.3300 1.8000 1.8320
f 129 130 131 132
f 133 134 135 136
f 129 130 134 133
f 130 131 135 134
f 131 132 136 135
f 132 129 133 136
v 1.7000 1.4000 0.0000
v 2.8500 1.4000 0.0000
v 2.8500 1.4000 0.3000
v 1.7000 1.4000 0.3000
v 1.7000 1.8000 0.0000
v 2.8500 1.8000 0.0000
v 2.8500 1.8000 0.3000
v 1.7000 1.8000 0.3000
f 137 138 139 140
f 141 142 143 144
f 137 138 142 141
f 138 139 143 142
f 139 140 144 143
f 140 137 141 144
v 2.8900 0.0000 0.6400
v 3.4100 0.0000 0.6400
v 3.4100 0.0000 1.7920
v 2.8900 0.0000 1.7920
v 2.8900 0.0600 0.6400
v 3.4100 0.0600 0.6400
v 3.4100 0.0600 1.7920
v 2.8900 0.0600 1.7920
f 145 146 147 148
f 149 150 151 152
f 145 146 150 149
f 146 147 151 150
f 147 148 152 151
f 148 145 149 152
v 2.8900 1.1400 1.6720
v 3.0500 1.1400 1.6720
v 3.0500 1.1400 1.8320
v 2.8900 1.1400 1.8320
v 2.8900 1.8600 1.6720
v 3.0500 1.8600 1.6720
v 3.0500 1.8600 1.8320
v 2.8900 1.8600 1.8320
f 153 154 155 156
f 157 158 159 160
f 153 154 158 157
f 154 155 159 158
f 155 156 160 159
f 156 153 157 160
v 2.8500 0.0000 0.6000
v 2.8900 0.0000 0.6000
v 2.8900 0.0000 1.2000
v 2.8500 0.0000 1.2000
v 2.8500 1.8810 0.6000
v 2.8900 1.8810 0.6000
v 2.8900 1.8810 1.2000
v 2.8500 1.8810 1.2000
f 161 162 163 164
f 165 166 167 168
f 161 162 166 165
f 162 163 167 166
f 163 164 168 167
f 164 161 165 168
v 2.8500 0.0000 0.0000
v 2.8900 0.0000 0.0000
v 2.8900 0.0000 0.6000
v 2.8500 0.0000 0.6000
v 2.8500 1.8810 0.0000
v 2.8900 1.8810 0.0000
v 2.8900 1.8810 0.6000
v 2.8500 1.8810 0.6000
f 169 170 171 172
f 173 174 175 176
f 169 170 174 173
f 170 171 175 174
f 171 172 176 175
f 172 169 173 176
v 2.8500 0.0000 1.2000
v 2.8900 0.0000 1.2000
v 2.8900 0.0000 1.8320
v 2.8500 0.0000 1.8320
v 2.8500 1.8810 1.2000
v 2.8900 1.8810 1.2000
v 2.8900 1.8810 1.8320
v 2.8500 1.8810 1.8320
f 177 178 179 180
f 181 182 183 184
f 177 178 182 181
f 178 179 183 182
f 179 180 184 183
f 180 177 181 184
v 0.2000 0.8950 1.2400
v 0.2200 0.8950 1.2400
v 0.2200 0.8950 1.8000
v 0.2000 0.8950 1.8000
v 0.2000 0.9050 1.2400
v 0.2200 0.9050 1.2400
v 0.2200 0.9050 1.8000
v 0.2000 0.9050 1.8000
f 185 186 187 188
f 189 190 191 192
f 185 186 190 189
f 186 187 191 190
f 187 188 192 191
f 188 185 189 192
v 0.5200 0.8950 1.2400
v 0.5400 0.8950 1.2400
v 0.5400 0.8950 1.8000
v 0.5200 0.8950 1.8000
v 0.5200 0.9050 1.2400
v 0.5400 0.9050 1.2400
v 0.5400 0.9050 1.8000
v 0.5200 0.9050 1.8000
f 193 194 195 196
f 197 198 199 200
f 193 194 198 197
f 194 195 199 198
f 195 196 200 199
f 196 193 197 200
v 0.2200 0.8950 1.2400
v 0.5200 0.8950 1.2400
v 0.5200 0.8950 1.2600
v 0.2200 0.8950 1.2600
v 0.2200 0.9050 1.2400
v 0.5200 0.9050 1.2400
v 0.5200 0.9050 1.2600
v 0.2200 0.9050 1.2600
f 201 202 203 204
f 205 206 207 208
f 201 202 206 205
f 202 203 207 206
f 203 204 208 207
f 204 201 205 208
v 0.2200 0.8950 1.5050
v 0.5200 0.8950 1.5050
v 0.5200 0.8950 1.5350
v 0.2200 0.8950 1.5350
v 0.2200 0.9050 1.5050
v 0.5200 0.9050 1.5050
v 0.5200 0.9050 1.5350
v 0.2200 0.9050 1.5350
f 209 210 211 212
f 213 214 215 216
f 209 210 214 213
f 210 211 215 214
f 211 212 216 215
f 212 209 213 216
v 0.2200 0.8950 1.7800
v 0.5200 0.8950 1.7800
v 0.5200 0.8950 1.8000
v 0.2200 0.8950 1.8000
v 0.2200 0.9050 1.7800
v 0.5200 0.9050 1.7800
v 0.5200 0.9050 1.8000
v 0.2200 0.9050 1.8000
f 217 218 219 220
f 221 222 223 224
f 217 218 222 221
f 218 219 223 222
f 219 220 224 223
f 220 217 221 224
v 0.2200 0.7550 1.2600
v 0.5200 0.7550 1.2600
v 0.5200 0.7550 1.5050
v 0.2200 0.7550 1.5050
v 0.2200 0.7630 1.2600
v 0.5200 0.7630 1.2600
v 0.5200 0.7630 1.5050
v 0.2200 0.7630 1.5050
f 225 226 227 228
f 229 230 231 232
f 225 226 230 229
f 226 227 231 230
f 227 228 232 231
f 228 225 229 232
v 0.2200 0.7550 1.2600
v 0.5200 0.7550 1.2600
v 0.5200 0.7550 1.2680
v 0.2200 0.7550 1.2680
v 0.2200 0.8950 1.2600
v 0.5200 0.8950 1.2600
v 0.5200 0.8950 1.2680
v 0.2200 0.8950 1.2680
f 233 234 235 236
f 237 238 239 240
f 233 234 238 237
f 234 235 239 238
f 235 236 240 239
f 236 233 237 240
v 0.2200 0.7550 1.4970
v 0.5200 0.7550 1.4970
v 0.5200 0.7550 1.5050
v 0.2200 0.7550 1.5050
v 0.2200 0.8950 1.4970
v 0.5200 0.8950 1.4970
v 0.5200 0.8950 1.5050
v 0.2200 0.8950 1.5050
f 241 242 243 244
f 245 246 247 248
f 241 242 246 245
f 242 243 247 246
f 243 244 248 247
f 244 241 245 248
v 0.2200 0.7550 1.2600
v 0.2280 0.7550 1.2600
v 0.2280 0.7550 1.5050
v 0.2200 0.7550 1.5050
v 0.2200 0.8950 1.2600
v 0.2280 0.8950 1.2600
v 0.2280 0.8950 1.5050
v 0.2200 0.8950 1.5050
f 249 250 251 252
f 253 254 255 256
f 249 250 254 253
f 250 251 255 254
f 251 252 256 255
f 252 249 253 256
v 0.5120 0.7550 1.2600
v 0.5200 0.7550 1.2600
v 0.5200 0.7550 1.5050
v 0.5120 0.7550 1.5050
v 0.5120 0.8950 1.2600
v 0.5200 0.8950 1.2600
v 0.5200 0.8950 1.5050
v 0.5120 0.8950 1.5050
f 257 258 259 260
f 261 262 263 264
f 257 258 262 261
f 258 259 263 262
f 259 260 264 263
f 260 257 261 264
v 0.2200 0.7550 1.5350
v 0.5200 0.7550 1.5350
v 0.5200 0.7550 1.7800
v 0.2200 0.7550 1.7800
v 0.2200 0.7630 1.5350
v 0.5200 0.7630 1.5350
v 0.5200 0.7630 1.7800
v 0.2200 0.7630 1.7800
f 265 266 267 268
f 269 270 271 272
f 265 266 270 269
f 266 267 271 270
f 267 268 272 271
f 268 265 269 272
v 0.2200 0.7550 1.5350
v 0.5200 0.7550 1.5350
v 0.5200 0.7550 1.5430
v 0.2200 0.7550 1.5430
v 0.2200 0.8950 1.5350
v 0.5200 0.8950 1.5350
v 0.5200 0.8950 1.5430
v 0.2200 0.8950 1.5430
f 273 274 275 276
f 277 278 279 280
f 273 274 278 277
f 274 275 279 278
f 275 276 280 279
f 276 273 277 280
v 0.2200 0.7550 1.7720
v 0.5200 0.7550 1.7720
v 0.5200 0.7550 1.7800
v 0.2200 0.7550 1.7800
v 0.2200 0.8950 1.7720
v 0.5200 0.8950 1.7720
v 0.5200 0.8950 1.7800
v 0.2200 0.8950 1.7800
f 281 282 283 284
f 285 286 287 288
f 281 282 286 285
f 282 283 287 286
f 283 284 288 287
f 284 281 285 288
v 0.2200 0.7550 1.5350
v 0.2280 0.7550 1.5350
v 0.2280 0.7550 1.7800
v 0.2200 0.7550 1.7800
v 0.2200 0.8950 1.5350
v 0.2280 0.8950 1.5350
v 0.2280 0.8950 1.7800
v 0.2200 0.8950 1.7800
f 289 290 291 292
f 293 294 295 296
f 289 290 294 293
f 290 291 295 294
f 291 292 296 295
f 292 289 293 296
v 0.5120 0.7550 1.5350
v 0.5200 0.7550 1.5350
v 0.5200 0.7550 1.7800
v 0.5120 0.7550 1.7800
v 0.5120 0.8950 1.5350
v 0.5200 0.8950 1.5350
v 0.5200 0.8950 1.7800
v 0.5120 0.8950 1.7800
f 297 298 299 300
f 301 302 303 304
f 297 298 302 301
f 298 299 303 302
f 299 300 304 303
f 300 297 301 304
v 0.1500 0.8450 0.5000
v 0.4500 0.8450 0.5000
v 0.4500 0.8450 1.0200
v 0.1500 0.8450 1.0200
v 0.1500 0.9050 0.5000
v 0.4500 0.9050 0.5000
v 0.4500 0.9050 1.0200
v 0.1500 0.9050 1.0200
f 305 306 307 308
f 309 310 311 312
f 305 306 310 309
f 306 307 311 310
f 307 308 312 311
f 308 305 309 312
v 0.0300 0.0600 0.4800
v 0.5750 0.0600 0.4800
v 0.5750 0.0600 1.0250
v 0.0300 0.0600 1.0250
v 0.0300 0.5850 0.4800
v 0.5750 0.5850 0.4800
v 0.5750 0.5850 1.0250
v 0.0300 0.5850 1.0250
f 313 314 315 316
f 317 318 319 320
f 313 314 318 317
f 314 315 319 318
f 315 316 320 319
f 316 313 317 320
v 0.6400 0.3800 1.2520
v 1.0900 0.3800 1.2520
v 1.0900 0.3800 1.6020
v 0.6400 0.3800 1.6020
v 0.6400 0.7200 1.2520
v 1.0900 0.7200 1.2520
v 1.0900 0.7200 1.6020
v 0.6400 0.7200 1.6020
f 321 322 323 324
f 325 326 327 328
f 321 322 326 325
f 322 323 327 326
f 323 324 328 327
f 324 321 325 328
v 0.1500 0.0400 1.4900
v 0.4900 0.0400 1.4900
v 0.4900 0.0400 1.8300
v 0.1500 0.0400 1.8300
v 0.1500 0.3700 1.4900
v 0.4900 0.3700 1.4900
v 0.4900 0.3700 1.8300
v 0.1500 0.3700 1.8300
f 329 330 331 332
f 333 334 335 336
f 329 330 334 333
f 330 331 335 334
f 331 332 336 335
f 332 329 333 336
v 0.2000 0.4200 1.6800
v 0.4600 0.4200 1.6800
v 0.4600 0.4200 1.7400
v 0.2000 0.4200 1.7400
v 0.2000 0.4800 1.6800
v 0.4600 0.4800 1.6800
v 0.4600 0.4800 1.7400
v 0.2000 0.4800 1.7400
f 337 338 339 340
f 341 342 343 344
f 337 338 342 341
f 338 339 343 342
f 339 340 344 343
f 340 337 341 344
v 0.0600 0.9050 1.4000
v 0.1600 0.9050 1.4000
v 0.1600 0.9050 1.5900
v 0.0600 0.9050 1.5900
v 0.0600 1.1850 1.4000
v 0.1600 1.1850 1.4000
v 0.1600 1.1850 1.5900
v 0.0600 1.1850 1.5900
f 345 346 347 348
f 349 350 351 352
f 345 346 350 349
f 346 347 351 350
f 347 348 352 351
f 348 345 349 352
v 0.0600 0.9050 1.6500
v 0.1100 0.9050 1.6500
v 0.1100 0.9050 1.7700
v 0.0600 0.9050 1.7700
v 0.0600 1.1550 1.6500
v 0.1100 1.1550 1.6500
v 0.1100 1.1550 1.7700
v 0.0600 1.1550 1.7700
f 353 354 355 356
f 357 358 359 360
f 353 354 358 357
f 354 355 359 358
f 355 356 360 359
f 356 353 357 360
v 2.8900 0.0400 1.2620
v 3.3100 0.0400 1.2620
v 3.3100 0.0400 1.8320
v 2.8900 0.0400 1.8320
v 2.8900 0.5600 1.2620
v 3.3100 0.5600 1.2620
v 3.3100 0.5600 1.8320
v 2.8900 0.5600 1.8320
f 361 362 363 364
f 365 366 367 368
f 361 362 366 365
f 362 363 367 366
f 363 364 368 367
f 364 361 365 368
v 1.8000 0.0300 0.2260
v 2.8200 0.0300 0.2260
v 2.8200 0.0300 0.6000
v 1.8000 0.0300 0.6000
v 1.8000 0.3400 0.2260
v 2.8200 0.3400 0.2260
v 2.8200 0.3400 0.6000
v 1.8000 0.3400 0.6000
f 369 370 371 372
f 373 374 375 376
f 369 370 374 373
f 370 371 375 374
f 371 372 376 375
f 372 369 373 376
v 2.1000 -0.2700 0.4000
v 2.8000 -0.2700 0.4000
v 2.8000 -0.2700 0.9000
v 2.1000 -0.2700 0.9000
v 2.1000 -0.0700 0.4000
v 2.8000 -0.0700 0.4000
v 2.8000 -0.0700 0.9000
v 2.1000 -0.0700 0.9000
f 377 378 379 380
f 381 382 383 384
f 377 378 382 381
f 378 379 383 382
f 379 380 384 383
f 380 377 381 384
v 2.9500 0.0600 0.1500
v 3.2500 0.0600 0.1500
v 3.2500 0.0600 0.5500
v 2.9500 0.0600 0.5500
v 2.9500 0.3600 0.1500
v 3.2500 0.3600 0.1500
v 3.2500 0.3600 0.5500
v 2.9500 0.3600 0.5500
f 385 386 387 388
f 389 390 391 392
f 385 386 390 389
f 386 387 391 390
f 387 388 392 391
f 388 385 389 392
v 1.4000 0.0300 1.2400
v 1.6000 0.0300 1.2400
v 1.6000 0.0300 1.5900
v 1.4000 0.0300 1.5900
v 1.4000 0.2700 1.2400
v 1.6000 0.2700 1.2400
v 1.6000 0.2700 1.5900
v 1.4000 0.2700 1.5900
f 393 394 395 396
f 397 398 399 400
f 393 394 398 397
f 394 395 399 398
f 395 396 400 399
f 396 393 397 400
v 1.6400 0.0300 1.2400
v 1.8400 0.0300 1.2400
v 1.8400 0.0300 1.5900
v 1.6400 0.0300 1.5900
v 1.6400 0.2700 1.2400
v 1.8400 0.2700 1.2400
v 1.8400 0.2700 1.5900
v 1.6400 0.2700 1.5900
f 401 402 403 404
f 405 406 407 408
f 401 402 406 405
f 402 403 407 406
f 403 404 408 407
f 404 401 405 408
v 1.4000 0.2700 1.3000
v 1.8700 0.2700 1.3000
v 1.8700 0.2700 1.5800
v 1.4000 0.2700 1.5800
v 1.4000 0.4500 1.3000
v 1.8700 0.4500 1.3000
v 1.8700 0.4500 1.5800
v 1.4000 0.4500 1.5800
f 409 410 411 412
f 413 414 415 416
f 409 410 414 413
f 410 411 415 414
f 411 412 416 415
f 412 409 413 416
v 2.9500 0.0600 0.0200
v 3.3400 0.0600 0.0200
v 3.3400 0.0600 0.1400
v 2.9500 0.0600 0.1400
v 2.9500 0.3600 0.0200
v 3.3400 0.3600 0.0200
v 3.3400 0.3600 0.1400
v 2.9500 0.3600 0.1400
f 417 418 419 420
f 421 422 423 424
f 417 418 422 421
f 418 419 423 422
f 419 420 424 423
f 420 417 421 424
v 0.0000 0.0000 -0.0400
v 0.3000 0.0000 -0.0400
v 0.3000 0.0000 0.0000
v 0.0000 0.0000 0.0000
v 0.0000 1.8810 -0.0400
v 0.3000 1.8810 -0.0400
v 0.3000 1.8810 0.0000
v 0.0000 1.8810 0.0000
f 425 426 427 428
f 429 430 431 432
f 425 426 430 429
f 426 427 431 430
f 427 428 432 431
f 428 425 429 432
v 2.4000 0.0000 -0.0400
v 3.4500 0.0000 -0.0400
v 3.4500 0.0000 0.0000
v 2.4000 0.0000 0.0000
v 2.4000 1.8810 -0.0400
v 3.4500 1.8810 -0.0400
v 3.4500 1.8810 0.0000
v 2.4000 1.8810 0.0000
f 433 434 435 436
f 437 438 439 440
f 433 434 438 437
f 434 435 439 438
f 435 436 440 439
f 436 433 437 440
v 1.6000 0.0000 -0.0400
v 2.4000 0.0000 -0.0400
v 2.4000 0.0000 0.0000
v 1.6000 0.0000 0.0000
v 1.6000 0.6200 -0.0400
v 2.4000 0.6200 -0.0400
v 2.4000 0.6200 0.0000
v 1.6000 0.6200 0.0000
f 441 442 443 444
f 445 446 447 448
f 441 442 446 445
f 442 443 447 446
f 443 444 448 447
f 444 441 445 448
v 1.6000 0.9600 -0.0400
v 2.4000 0.9600 -0.0400
v 2.4000 0.9600 0.0000
v 1.6000 0.9600 0.0000
v 1.6000 1.8810 -0.0400
v 2.4000 1.8810 -0.0400
v 2.4000 1.8810 0.0000
v 1.6000 1.8810 0.0000
f 449 450 451 452
f 453 454 455 456
f 449 450 454 453
f 450 451 455 454
f 451 452 456 455
f 452 449 453 456
v 0.3000 1.5500 -0.0400
v 1.6000 1.5500 -0.0400
v 1.6000 1.5500 0.0000
v 0.3000 1.5500 0.0000
v 0.3000 1.8810 -0.0400
v 1.6000 1.8810 -0.0400
v 1.6000 1.8810 0.0000
v 0.3000 1.8810 0.0000
f 457 458 459 460
f 461 462 463 464
f 457 458 462 461
f 458 459 463 462
f 459 460 464 463
f 460 457 461 464
v 1.6000 0.6200 -0.0400
v 2.4000 0.6200 -0.0400
v 2.4000 0.6200 0.0000
v 1.6000 0.6200 0.0000
v 1.6000 0.9600 -0.0400
v 2.4000 0.9600 -0.0400
v 2.4000 0.9600 0.0000
v 1.6000 0.9600 0.0000
f 465 466 467 468
f 469 470 471 472
f 465 466 470 469
f 466 467 471 470
f 467 468 472 471
f 468 465 469 472
v 0.0000 0.0000 1.8320
v 0.1200 0.0000 1.8320
v 0.1200 0.0000 1.8720
v 0.0000 0.0000 1.8720
v 0.0000 1.8810 1.8320
v 0.1200 1.8810 1.8320
v 0.1200 1.8810 1.8720
v 0.0000 1.8810 1.8720
f 473 474 475 476
f 477 478 479 480
f 473 474 478 477
f 474 475 479 478
f 475 476 480 479
f 476 473 477 480
v 1.0000 0.0000 1.8320
v 1.4500 0.0000 1.8320
v 1.4500 0.0000 1.8720
v 1.0000 0.0000 1.8720
v 1.0000 1.8810 1.8320
v 1.4500 1.8810 1.8320
v 1.4500 1.8810 1.8720
v 1.0000 1.8810 1.8720
f 481 482 483 484
f 485 486 487 488
f 481 482 486 485
f 482 483 487 486
f 483 484 488 487
f 484 481 485 488
v 2.2500 0.0000 1.8320
v 2.9000 0.0000 1.8320
v 2.9000 0.0000 1.8720
v 2.2500 0.0000 1.8720
v 2.2500 1.8810 1.8320
v 2.9000 1.8810 1.8320
v 2.9000 1.8810 1.8720
v 2.2500 1.8810 1.8720
f 489 490 491 492
f 493 494 495 496
f 489 490 494 493
f 490 491 495 494
f 491 492 496 495
f 492 489 493 496
v 3.3200 0.0000 1.8320
v 3.4500 0.0000 1.8320
v 3.4500 0.0000 1.8720
v 3.3200 0.0000 1.8720
v 3.3200 1.8810 1.8320
v 3.4500 1.8810 1.8320
v 3.4500 1.8810 1.8720
v 3.3200 1.8810 1.8720
f 497 498 499 500
f 501 502 503 504
f 497 498 502 501
f 498 499 503 502
f 499 500 504 503
f 500 497 501 504
v 2.9000 0.0000 1.8320
v 3.3200 0.0000 1.8320
v 3.3200 0.0000 1.8720
v 2.9000 0.0000 1.8720
v 2.9000 0.0400 1.8320
v 3.3200 0.0400 1.8320
v 3.3200 0.0400 1.8720
v 2.9000 0.0400 1.8720
f 505 506 507 508
f 509 510 511 512
f 505 506 510 509
f 506 507 511 510
f 507 508 512 511
f 508 505 509 512
v 2.9000 0.5800 1.8320
v 3.3200 0.5800 1.8320
v 3.3200 0.5800 1.8720
v 2.9000 0.5800 1.8720
v 2.9000 1.8810 1.8320
v 3.3200 1.8810 1.8320
v 3.3200 1.8810 1.8720
v 2.9000 1.8810 1.8720
f 513 514 515 516
f 517 518 519 520
f 513 514 518 517
f 514 515 519 518
f 515 516 520 519
f 516 513 517 520
v 1.4500 0.0000 1.8320
v 2.2500 0.0000 1.8320
v 2.2500 0.0000 1.8720
v 1.4500 0.0000 1.8720
v 1.4500 0.6200 1.8320
v 2.2500 0.6200 1.8320
v 2.2500 0.6200 1.8720
v 1.4500 0.6200 1.8720
f 521 522 523 524
f 525 526 527 528
f 521 522 526 525
f 522 523 527 526
f 523 524 528 527
f 524 521 525 528
v 1.4500 0.9600 1.8320
v 2.2500 0.9600 1.8320
v 2.2500 0.9600 1.8720
v 1.4500 0.9600 1.8720
v 1.4500 1.8810 1.8320
v 2.2500 1.8810 1.8320
v 2.2500 1.8810 1.8720
v 1.4500 1.8810 1.8720
f 529 530 531 532
f 533 534 535 536
f 529 530 534 533
f 530 531 535 534
f 531 532 536 535
f 532 529 533 536
v 0.1200 0.0000 1.8320
v 1.0000 0.0000 1.8320
v 1.0000 0.0000 1.8720
v 0.1200 0.0000 1.8720
v 0.1200 1.0000 1.8320
v 1.0000 1.0000 1.8320
v 1.0000 1.0000 1.8720
v 0.1200 1.0000 1.8720
f 537 538 539 540
f 541 542 543 544
f 537 538 542 541
f 538 539 543 542
f 539 540 544 543
f 540 537 541 544
v 0.1200 1.3500 1.8320
v 1.0000 1.3500 1.8320
v 1.0000 1.3500 1.8720
v 0.1200 1.3500 1.8720
v 0.1200 1.8810 1.8320
v 1.0000 1.8810 1.8320
v 1.0000 1.8810 1.8720
v 0.1200 1.8810 1.8720
f 545 546 547 548
f 549 550 551 552
f 545 546 550 549
f 546 547 551 550
f 547 548 552 551
f 548 545 549 552
v 0.1200 1.0000 1.8320
v 1.0000 1.0000 1.8320
v 1.0000 1.0000 1.8720
v 0.1200 1.0000 1.8720
v 0.1200 1.3500 1.8320
v 1.0000 1.3500 1.8320
v 1.0000 1.3500 1.8720
v 0.1200 1.3500 1.8720
f 553 554 555 556
f 557 558 559 560
f 553 554 558 557
f 554 555 559 558
f 555 556 560 559
f 556 553 557 560
v 1.4500 0.6200 1.8320
v 2.2500 0.6200 1.8320
v 2.2500 0.6200 1.8720
v 1.4500 0.6200 1.8720
v 1.4500 0.9600 1.8320
v 2.2500 0.9600 1.8320
v 2.2500 0.9600 1.8720
v 1.4500 0.9600 1.8720
f 561 562 563 564
f 565 566 567 568
f 561 562 566 565
f 562 563 567 566
f 563 564 568 567
f 564 561 565 568
v 2.9000 0.0400 1.8320
v 3.3200 0.0400 1.8320
v 3.3200 0.0400 1.8720
v 2.9000 0.0400 1.8720
v 2.9000 0.5800 1.8320
v 3.3200 0.5800 1.8320
v 3.3200 0.5800 1.8720
v 2.9000 0.5800 1.8720
f 569 570 571 572
f 573 574 575 576
f 569 570 574 573
f 570 571 575 574
f 571 572 576 575
f 572 569 573 576
v 0.0000 1.8810 0.0000
v 0.1500 1.8810 0.0000
v 0.1500 1.8810 1.8320
v 0.0000 1.8810 1.8320
v 0.0000 1.9210 0.0000
v 0.1500 1.9210 0.0000
v 0.1500 1.9210 1.8320
v 0.0000 1.9210 1.8320
f 577 578 579 580
f 581 582 583 584
f 577 578 582 581
f 578 579 583 582
f 579 580 584 583
f 580 577 581 584
v 0.6300 1.8810 0.0000
v 1.9000 1.8810 0.0000
v 1.9000 1.8810 1.8320
v 0.6300 1.8810 1.8320
v 0.6300 1.9210 0.0000
v 1.9000 1.9210 0.0000
v 1.9000 1.9210 1.8320
v 0.6300 1.9210 1.8320
f 585 586 587 588
f 589 590 591 592
f 585 586 590 589
f 586 587 591 590
f 587 588 592 591
f 588 585 589 592
v 2.3800 1.8810 0.0000
v 3.4500 1.8810 0.0000
v 3.4500 1.8810 1.8320
v 2.3800 1.8810 1.8320
v 2.3800 1.9210 0.0000
v 3.4500 1.9210 0.0000
v 3.4500 1.9210 1.8320
v 2.3800 1.9210 1.8320
f 593 594 595 596
f 597 598 599 600
f 593 594 598 597
f 594 595 599 598
f 595 596 600 599
f 596 593 597 600
v 1.9000 1.8810 0.0000
v 2.3800 1.8810 0.0000
v 2.3800 1.8810 0.6760
v 1.9000 1.8810 0.6760
v 1.9000 1.9210 0.0000
v 2.3800 1.9210 0.0000
v 2.3800 1.9210 0.6760
v 1.9000 1.9210 0.6760
f 601 602 603 604
f 605 606 607 608
f 601 602 606 605
f 602 603 607 606
f 603 604 608 607
f 604 601 605 608
v 1.9000 1.8810 1.1560
v 2.3800 1.8810 1.1560
v 2.3800 1.8810 1.8320
v 1.9000 1.8810 1.8320
v 1.9000 1.9210 1.1560
v 2.3800 1.9210 1.1560
v 2.3800 1.9210 1.8320
v 1.9000 1.9210 1.8320
f 609 610 611 612
f 613 614 615 616
f 609 610 614 613
f 610 611 615 614
f 611 612 616 615
f 612 609 613 616
v 0.1500 1.8810 0.0000
v 0.6300 1.8810 0.0000
v 0.6300 1.8810 0.5000
v 0.1500 1.8810 0.5000
v 0.1500 1.9210 0.0000
v 0.6300 1.9210 0.0000
v 0.6300 1.9210 0.5000
v 0.1500 1.9210 0.5000
f 617 618 619 620
f 621 622 623 624
f 617 618 622 621
f 618 619 623 622
f 619 620 624 623
f 620 617 621 624
v 0.1500 1.8810 0.9800
v 0.6300 1.8810 0.9800
v 0.6300 1.8810 1.8320
v 0.1500 1.8810 1.8320
v 0.1500 1.9210 0.9800
v 0.6300 1.9210 0.9800
v 0.6300 1.9210 1.8320
v 0.1500 1.9210 1.8320
f 625 626 627 628
f 629 630 631 632
f 625 626 630 629
f 626 627 631 630
f 627 628 632 631
f 628 625 629 632
v 0.0000 -0.0400 0.0000
v 3.4500 -0.0400 0.0000
v 3.4500 -0.0400 1.8320
v 0.0000 -0.0400 1.8320
v 0.0000 0.0000 0.0000
v 3.4500 0.0000 0.0000
v 3.4500 0.0000 1.8320
v 0.0000 0.0000 1.8320
f 633 634 635 636
f 637 638 639 640
f 633 634 638 637
f 634 635 639 638
f 635 636 640 639
f 636 633 637 640
v -0.0400 0.0000 0.0000
v 0.0000 0.0000 0.0000
v 0.0000 0.0000 0.0600
v -0.0400 0.0000 0.0600
v -0.0400 1.8810 0.0000
v 0.0000 1.8810 0.0000
v 0.0000 1.8810 0.0600
v -0.0400 1.8810 0.0600
f 641 642 643 644
f 645 646 647 648
f 641 642 646 645
f 642 643 647 646
f 643 644 648 647
f 644 641 645 648
v -0.0400 0.0000 0.4400
v 0.0000 0.0000 0.4400
v 0.0000 0.0000 1.8320
v -0.0400 0.0000 1.8320
v -0.0400 1.8810 0.4400
v 0.0000 1.8810 0.4400
v 0.0000 1.8810 1.8320
v -0.0400 1.8810 1.8320
f 649 650 651 652
f 653 654 655 656
f 649 650 654 653
f 650 651 655 654
f 651 652 656 655
f 652 649 653 656
v -0.0400 0.0000 0.0600
v 0.0000 0.0000 0.0600
v 0.0000 0.0000 0.4400
v -0.0400 0.0000 0.4400
v -0.0400 0.4200 0.0600
v 0.0000 0.4200 0.0600
v 0.0000 0.4200 0.4400
v -0.0400 0.4200 0.4400
f 657 658 659 660
f 661 662 663 664
f 657 658 662 661
f 658 659 663 662
f 659 660 664 663
f 660 657 661 664
v -0.0400 1.6200 0.0600
v 0.0000 1.6200 0.0600
v 0.0000 1.6200 0.4400
v -0.0400 1.6200 0.4400
v -0.0400 1.8810 0.0600
v 0.0000 1.8810 0.0600
v 0.0000 1.8810 0.4400
v -0.0400 1.8810 0.4400
f 665 666 667 668
f 669 670 671 672
f 665 666 670 669
f 666 667 671 670
f 667 668 672 671
f 668 665 669 672
v 3.4500 0.0000 0.0000
v 3.4900 0.0000 0.0000
v 3.4900 0.0000 0.0600
v 3.4500 0.0000 0.0600
v 3.4500 1.8810 0.0000
v 3.4900 1.8810 0.0000
v 3.4900 1.8810 0.0600
v 3.4500 1.8810 0.0600
f 673 674 675 676
f 677 678 679 680
f 673 674 678 677
f 674 675 679 678
f 675 676 680 679
f 676 673 677 680
v 3.4500 0.0000 1.7720
v 3.4900 0.0000 1.7720
v 3.4900 0.0000 1.8320
v 3.4500 0.0000 1.8320
v 3.4500 1.8810 1.7720
v 3.4900 1.8810 1.7720
v 3.4900 1.8810 1.8320
v 3.4500 1.8810 1.8320
f 681 682 683 684
f 685 686 687 688
f 681 682 686 685
f 682 683 687 686
f 683 684 688 687
f 684 681 685 688
v 3.4500 1.7000 0.0600
v 3.4900 1.7000 0.0600
v 3.4900 1.7000 1.7720
v 3.4500 1.7000 1.7720
v 3.4500 1.8810 0.0600
v 3.4900 1.8810 0.0600
v 3.4900 1.8810 1.7720
v 3.4500 1.8810 1.7720
f 689 690 691 692
f 693 694 695 696
f 689 690 694 693
f 690 691 695 694
f 691 692 696 695
f 692 689 693 696
v -1.5000 -0.0400 0.0000
v 0.0000 -0.0400 0.0000
v 0.0000 -0.0400 1.8320
v -1.5000 -0.0400 1.8320
v -1.5000 0.0000 0.0000
v 0.0000 0.0000 0.0000
v 0.0000 0.0000 1.8320
v -1.5000 0.0000 1.8320
f 697 698 699 700
f 701 702 703 704
f 697 698 702 701
f 698 699 703 702
f 699 700 704 703
f 700 697 701 704
v -1.4000 1.5000 0.0000
v -0.1000 1.5000 0.0000
v -0.1000 1.5000 1.8320
v -1.4000 1.5000 1.8320
v -1.4000 1.5400 0.0000
v -0.1000 1.5400 0.0000
v -0.1000 1.5400 1.8320
v -1.4000 1.5400 1.8320
f 705 706 707 708
f 709 710 711 712
f 705 706 710 709
f 706 707 711 710
f 707 708 712 711
f 708 705 709 712
v -1.4500 0.9000 0.0600
v -1.4100 0.9000 0.0600
v -1.4100 0.9000 1.7720
v -1.4500 0.9000 1.7720
v -1.4500 1.5000 0.0600
v -1.4100 1.5000 0.0600
v -1.4100 1.5000 1.7720
v -1.4500 1.5000 1.7720
f 713 714 715 716
f 717 718 719 720
f 713 714 718 717
f 714 715 719 718
f 715 716 720 719
f 716 713 717 720
v -1.5000 0.0000 -0.0400
v -1.2000 0.0000 -0.0400
v -1.2000 0.0000 0.0000
v -1.5000 0.0000 0.0000
v -1.5000 1.5000 -0.0400
v -1.2000 1.5000 -0.0400
v -1.2000 1.5000 0.0000
v -1.5000 1.5000 0.0000
f 721 722 723 724
f 725 726 727 728
f 721 722 726 725
f 722 723 727 726
f 723 724 728 727
f 724 721 725 728
v -0.3500 0.0000 -0.0400
v 0.0000 0.0000 -0.0400
v 0.0000 0.0000 0.0000
v -0.3500 0.0000 0.0000
v -0.3500 1.5000 -0.0400
v 0.0000 1.5000 -0.0400
v 0.0000 1.5000 0.0000
v -0.3500 1.5000 0.0000
f 729 730 731 732
f 733 734 735 736
f 729 730 734 733
f 730 731 735 734
f 731 732 736 735
f 732 729 733 736
v -1.2000 0.0000 -0.0400
v -0.3500 0.0000 -0.0400
v -0.3500 0.0000 0.0000
v -1.2000 0.0000 0.0000
v -1.2000 0.3000 -0.0400
v -0.3500 0.3000 -0.0400
v -0.3500 0.3000 0.0000
v -1.2000 0.3000 0.0000
f 737 738 739 740
f 741 742 743 744
f 737 738 742 741
f 738 739 743 742
f 739 740 744 743
f 740 737 741 744
v -1.2000 1.4000 -0.0400
v -0.3500 1.4000 -0.0400
v -0.3500 1.4000 0.0000
v -1.2000 1.4000 0.0000
v -1.2000 1.5000 -0.0400
v -0.3500 1.5000 -0.0400
v -0.3500 1.5000 0.0000
v -1.2000 1.5000 0.0000
f 745 746 747 748
f 749 750 751 752
f 745 746 750 749
f 746 747 751 750
f 747 748 752 751
f 748 745 749 752
v -1.5000 0.0000 1.8320
v -1.2000 0.0000 1.8320
v -1.2000 0.0000 1.8720
v -1.5000 0.0000 1.8720
v -1.5000 1.5000 1.8320
v -1.2000 1.5000 1.8320
v -1.2000 1.5000 1.8720
v -1.5000 1.5000 1.8720
f 753 754 755 756
f 757 758 759 760
f 753 754 758 757
f 754 755 759 758
f 755 756 760 759
f 756 753 757 760
v -0.3500 0.0000 1.8320
v 0.0000 0.0000 1.8320
v 0.0000 0.0000 1.8720
v -0.3500 0.0000 1.8720
v -0.3500 1.5000 1.8320
v 0.0000 1.5000 1.8320
v 0.0000 1.5000 1.8720
v -0.3500 1.5000 1.8720
f 761 762 763 764
f 765 766 767 768
f 761 762 766 765
f 762 763 767 766
f 763 764 768 767
f 764 761 765 768
v -1.2000 0.0000 1.8320
v -0.3500 0.0000 1.8320
v -0.3500 0.0000 1.8720
v -1.2000 0.0000 1.8720
v -1.2000 0.3000 1.8320
v -0.3500 0.3000 1.8320
v -0.3500 0.3000 1.8720
v -1.2000 0.3000 1.8720
f 769 770 771 772
f 773 774 775 776
f 769 770 774 773
f 770 771 775 774
f 771 772 776 775
f 772 769 773 776
v -1.2000 1.4000 1.8320
v -0.3500 1.4000 1.8320
v -0.3500 1.4000 1.8720
v -1.2000 1.4000 1.8720
v -1.2000 1.5000 1.8320
v -0.3500 1.5000 1.8320
v -0.3500 1.5000 1.8720
v -1.2000 1.5000 1.8720
f 777 778 779 780
f 781 782 783 784
f 777 778 782 781
f 778 779 783 782
f 779 780 784 783
f 780 777 781 784
v -1.2500 0.7000 0.0600
v -1.0000 0.7000 0.0600
v -1.0000 0.7000 1.7720
v -1.2500 0.7000 1.7720
v -1.2500 0.9500 0.0600
v -1.0000 0.9500 0.0600
v -1.0000 0.9500 1.7720
v -1.2500 0.9500 1.7720
f 785 786 787 788
f 789 790 791 792
f 785 786 790 789
f 786 787 791 790
f 787 788 792 791
f 788 785 789 792
v -1.0500 0.9500 1.2120
v -0.9800 0.9500 1.2120
v -0.9800 0.9500 1.5520
v -1.0500 0.9500 1.5520
v -1.0500 1.3000 1.2120
v -0.9800 1.3000 1.2120
v -0.9800 1.3000 1.5520
v -1.0500 1.3000 1.5520
f 793 794 795 796
f 797 798 799 800
f 793 794 798 797
f 794 795 799 798
f 795 796 800 799
f 796 793 797 800
v -0.6700 0.0000 1.1400
v -0.1900 0.0000 1.1400
v -0.1900 0.0000 1.6200
v -0.6700 0.0000 1.6200
v -0.6700 0.4200 1.1400
v -0.1900 0.4200 1.1400
v -0.1900 0.4200 1.6200
v -0.6700 0.4200 1.6200
f 801 802 803 804
f 805 806 807 808
f 801 802 806 805
f 802 803 807 806
f 803 804 808 807
f 804 801 805 808
v -0.6700 0.4200 1.1400
v -0.1900 0.4200 1.1400
v -0.1900 0.4200 1.6200
v -0.6700 0.4200 1.6200
v -0.6700 0.5000 1.1400
v -0.1900 0.5000 1.1400
v -0.1900 0.5000 1.6200
v -0.6700 0.5000 1.6200
f 809 810 811 812
f 813 814 815 816
f 809 810 814 813
f 810 811 815 814
f 811 812 816 815
f 812 809 813 816
v -0.2900 0.5000 1.1400
v -0.1900 0.5000 1.1400
v -0.1900 0.5000 1.6200
v -0.2900 0.5000 1.6200
v -0.2900 1.1000 1.1400
v -0.1900 1.1000 1.1400
v -0.1900 1.1000 1.6200
v -0.2900 1.1000 1.6200
f 817 818 819 820
f 821 822 823 824
f 817 818 822 821
f 818 819 823 822
f 819 820 824 823
f 820 817 821 824
v -0.6700 0.0000 0.0600
v -0.1900 0.0000 0.0600
v -0.1900 0.0000 1.0600
v -0.6700 0.0000 1.0600
v -0.6700 0.4200 0.0600
v -0.1900 0.4200 0.0600
v -0.1900 0.4200 1.0600
v -0.6700 0.4200 1.0600
f 825 826 827 828
f 829 830 831 832
f 825 826 830 829
f 826 827 831 830
f 827 828 832 831
f 828 825 829 832
v -0.6700 0.4200 0.0600
v -0.1900 0.4200 0.0600
v -0.1900 0.4200 1.0600
v -0.6700 0.4200 1.0600
v -0.6700 0.5000 0.0600
v -0.1900 0.5000 0.0600
v -0.1900 0.5000 1.0600
v -0.6700 0.5000 1.0600
f 833 834 835 836
f 837 838 839 840
f 833 834 838 837
f 834 835 839 838
f 835 836 840 839
f 836 833 837 840
v -0.2900 0.5000 0.0600
v -0.1900 0.5000 0.0600
v -0.1900 0.5000 1.0600
v -0.2900 0.5000 1.0600
v -0.2900 1.1000 0.0600
v -0.1900 1.1000 0.0600
v -0.1900 1.1000 1.0600
v -0.2900 1.1000 1.0600
f 841 842 843 844
f 845 846 847 848
f 841 842 846 845
f 842 843 847 846
f 843 844 848 847
f 844 841 845 848
v -1.2560 -0.6000 -0.0090
v -0.5440 -0.6000 -0.0090
v -0.5440 -0.6000 0.2260
v -1.2560 -0.6000 0.2260
v -1.2560 0.1120 -0.0090
v -0.5440 0.1120 -0.0090
v -0.5440 0.1120 0.2260
v -1.2560 0.1120 0.2260
f 849 850 851 852
f 853 854 855 856
f 849 850 854 853
f 850 851 855 854
f 851 852 856 855
f 852 849 853 856
v -1.2560 -0.6000 1.6060
v -0.5440 -0.6000 1.6060
v -0.5440 -0.6000 1.8410
v -1.2560 -0.6000 1.8410
v -1.2560 0.1120 1.6060
v -0.5440 0.1120 1.6060
v -0.5440 0.1120 1.8410
v -1.2560 0.1120 1.8410
f 857 858 859 860
f 861 862 863 864
f 857 858 862 861
f 858 859 863 862
f 859 860 864 863
f 860 857 861 864
v 1.9570 -0.6000 -0.0090
v 2.6690 -0.6000 -0.0090
v 2.6690 -0.6000 0.2260
v 1.9570 -0.6000 0.2260
v 1.9570 0.1120 -0.0090
v 2.6690 0.1120 -0.0090
v 2.6690 0.1120 0.2260
v 1.9570 0.1120 0.2260
f 865 866 867 868
f 869 870 871 872
f 865 866 870 869
f 866 867 871 870
f 867 868 872 871
f 868 865 869 872
v 1.9570 -0.6000 1.6060
v 2.6690 -0.6000 1.6060
v 2.6690 -0.6000 1.8410
v 1.9570 -0.6000 1.8410
v 1.9570 0.1120 1.6060
v 2.6690 0.1120 1.6060
v 2.6690 0.1120 1.8410
v 1.9570 0.1120 1.8410
f 873 874 875 876
f 877 878 879 880
f 873 874 878 877
f 874 875 879 878
f 875 876 880 879
f 876 873 877 880
